<?xml version="1.0" standalone="no"?>
<!DOCTYPE svg PUBLIC "-//W3C//DTD SVG 20010904//EN"
 "http://www.w3.org/TR/2001/REC-SVG-20010904/DTD/svg10.dtd">
<svg version="1.0" xmlns="http://www.w3.org/2000/svg"
 width="160.000000pt" height="160.000000pt" viewBox="0 0 160.000000 160.000000"
 preserveAspectRatio="xMidYMid meet">

<g transform="translate(0.000000,160.000000) scale(0.100000,-0.100000)"
fill="#000000" stroke="none">
<path d="M220 851 l0 -177 53 -53 54 -52 374 5 c450 6 391 6 526 0 155 -7 153
-10 153 179 l0 142 -60 61 c-68 69 -102 82 -157 59 -32 -14 -38 -14 -52 0 -14
12 -81 14 -454 14 l-437 -1 0 -177z m160 124 c0 -43 -1 -45 -30 -45 l-30 0 0
-90 0 -90 30 0 c29 0 30 -2 30 -45 l0 -45 -63 0 c-36 0 -68 5 -75 12 -8 8 -12
63 -12 180 l0 168 75 0 75 0 0 -45z m198 -137 l2 -178 -45 0 -45 0 -2 43 -1
42 -4 -42 -4 -43 -45 0 -44 0 0 163 c0 89 4 167 8 173 12 19 34 23 107 21 l70
-2 3 -177z m162 137 c0 -43 -1 -45 -30 -45 l-30 0 0 -135 0 -135 -45 0 -45 0
0 170 c0 195 -3 189 93 190 l57 0 0 -45z m198 -137 l2 -178 -45 0 -45 0 -2 43
-1 42 -4 -42 -4 -43 -45 0 -44 0 1 161 c1 199 2 201 112 197 l72 -3 3 -177z
m150 32 c-3 -146 -4 -150 -29 -176 -16 -16 -41 -28 -67 -31 l-42 -6 0 37 c0
29 4 36 19 36 40 0 51 26 51 121 l0 89 -35 0 c-33 0 -35 2 -35 33 0 19 3 37 7
40 3 4 35 7 70 7 l64 0 -3 -150z m173 130 c66 -36 65 -205 -2 -241 -51 -27
-124 -4 -147 47 -28 59 -7 168 35 193 23 14 89 14 114 1z m-21 -300 c0 -28 3
-30 36 -30 34 0 35 -1 32 -32 -4 -41 -34 -58 -108 -58 -68 0 -100 19 -100 61
0 27 3 29 35 29 32 0 35 2 35 30 0 28 3 30 35 30 32 0 35 -2 35 -30z"/>
<path d="M483 880 c0 -30 2 -43 4 -27 2 15 2 39 0 55 -2 15 -4 2 -4 -28z"/>
<path d="M843 880 c0 -30 2 -43 4 -27 2 15 2 39 0 55 -2 15 -4 2 -4 -28z"/>
<path d="M1186 928 c-21 -68 -12 -108 24 -108 24 0 32 25 24 77 -5 33 -10 43
-25 43 -11 0 -21 -6 -23 -12z"/>
</g>
</svg>
